<svg width="500" height="500" viewBox="0 0 500 500" xmlns="http://www.w3.org/2000/svg">
  <rect width="500" height="500" fill="#050505" />
  <defs>
    <radialGradient id="grad1" cx="50%" cy="50%" r="50%" fx="50%" fy="50%">
      <stop offset="0%" style="stop-color:#ffffff;stop-opacity:0.1" />
      <stop offset="100%" style="stop-color:#050505;stop-opacity:0" />
    </radialGradient>
  </defs>
  <circle cx="250" cy="250" r="240" fill="url(#grad1)" />
  <circle cx="250" cy="250" r="40" fill="none" stroke="#ffffff" stroke-width="0.5" stroke-dasharray="5" opacity="1" />
<circle cx="250" cy="250" r="65" fill="none" stroke="#ffffff" stroke-width="0.5" stroke-dasharray="25" opacity="0.85" />
<circle cx="250" cy="250" r="90" fill="none" stroke="#ffffff" stroke-width="0.5" stroke-dasharray="25" opacity="0.7" />
<circle cx="250" cy="250" r="115" fill="none" stroke="#ffffff" stroke-width="0.5" stroke-dasharray="35" opacity="0.55" />
<circle cx="250" cy="250" r="140" fill="none" stroke="#ffffff" stroke-width="0.5" stroke-dasharray="25" opacity="0.4" />
<circle cx="250" cy="250" r="165" fill="none" stroke="#ffffff" stroke-width="0.5" stroke-dasharray="55" opacity="0.25" />

  <line x1="250" y1="250" x2="448.0536137483141" y2="277.83462019201306" stroke="#ffffff" stroke-width="0.2" opacity="0.3" />
<line x1="250" y1="250" x2="407.6021507213444" y2="373.13229506513164" stroke="#ffffff" stroke-width="0.2" opacity="0.3" />
<line x1="250" y1="250" x2="324.9213186831824" y2="435.43677091335746" stroke="#ffffff" stroke-width="0.2" opacity="0.3" />
<line x1="250" y1="250" x2="222.16537980798694" y2="448.0536137483141" stroke="#ffffff" stroke-width="0.2" opacity="0.3" />
<line x1="250" y1="250" x2="126.86770493486834" y2="407.6021507213444" stroke="#ffffff" stroke-width="0.2" opacity="0.3" />
<line x1="250" y1="250" x2="64.56322908664254" y2="324.92131868318245" stroke="#ffffff" stroke-width="0.2" opacity="0.3" />
<line x1="250" y1="250" x2="51.94638625168594" y2="222.16537980798688" stroke="#ffffff" stroke-width="0.2" opacity="0.3" />
<line x1="250" y1="250" x2="92.3978492786556" y2="126.86770493486836" stroke="#ffffff" stroke-width="0.2" opacity="0.3" />
<line x1="250" y1="250" x2="175.07868131681755" y2="64.56322908664254" stroke="#ffffff" stroke-width="0.2" opacity="0.3" />
<line x1="250" y1="250" x2="277.8346201920131" y2="51.94638625168594" stroke="#ffffff" stroke-width="0.2" opacity="0.3" />
<line x1="250" y1="250" x2="373.1322950651317" y2="92.39784927865566" stroke="#ffffff" stroke-width="0.2" opacity="0.3" />
<line x1="250" y1="250" x2="435.43677091335746" y2="175.07868131681755" stroke="#ffffff" stroke-width="0.2" opacity="0.3" />

  <text x="250" y="260" font-family="monospace" font-size="24" fill="#ffffff" text-anchor="middle" letter-spacing="8" font-weight="bold">MIND</text>
  <text x="250" y="460" font-family="monospace" font-size="10" fill="#525252" text-anchor="middle" letter-spacing="2">AGENT CREDENTIAL [INSTITUTIONAL]</text>
  <text x="250" y="475" font-family="monospace" font-size="8" fill="#333333" text-anchor="middle">HtmWinXoKraW34Mu...</text>
</svg>